<?xml version="1.0" encoding="utf-8"?>
<!-- Generator: Adobe Illustrator 17.0.2, SVG Export Plug-In . SVG Version: 6.00 Build 0)  -->
<!DOCTYPE svg PUBLIC "-//W3C//DTD SVG 1.1//EN" "http://www.w3.org/Graphics/SVG/1.1/DTD/svg11.dtd">
<svg version="1.1" id="Layer_1" xmlns="http://www.w3.org/2000/svg" xmlns:xlink="http://www.w3.org/1999/xlink" x="0px" y="0px"
	 width="30.237px" height="33.097px" viewBox="0 0 30.237 33.097" enable-background="new 0 0 30.237 33.097" xml:space="preserve">
<polygon fill="#F15537" points="10.532,1.776 10.558,8.66 4.564,5.23 1.612,6.94 13.52,13.796 13.507,2.511 13.497,0.06 "/>
<polygon fill="#F15537" points="16.705,20.202 16.755,33.058 19.721,31.341 19.694,24.457 25.688,27.886 28.65,26.172 
	16.704,19.295 "/>
<polygon fill="#F15537" points="22.645,14.019 18.289,16.542 30.195,23.396 30.206,20.003 24.245,16.559 30.227,13.108 
	30.237,9.639 "/>
<polygon fill="#F15537" points="0.032,13.084 5.992,16.527 0.011,19.979 0.001,23.448 5.728,20.143 11.934,16.549 0.043,9.703 "/>
<polygon fill="#F15537" points="16.708,0 16.695,12.208 16.697,13.791 28.576,6.913 25.664,5.216 19.699,8.652 19.706,1.746 "/>
<polygon fill="#F15537" points="1.651,26.174 4.579,27.88 10.544,24.445 10.537,31.351 13.535,33.097 13.538,29.157 13.526,19.298 
	"/>
</svg>
