<?xml version="1.0" encoding="utf-8"?>
<!-- Generator: Adobe Illustrator 19.2.1, SVG Export Plug-In . SVG Version: 6.00 Build 0)  -->
<!DOCTYPE svg PUBLIC "-//W3C//DTD SVG 1.1//EN" "http://www.w3.org/Graphics/SVG/1.1/DTD/svg11.dtd">
<svg version="1.1" id="Layer_1" xmlns="http://www.w3.org/2000/svg" xmlns:xlink="http://www.w3.org/1999/xlink" x="0px" y="0px"
	 viewBox="0 0 128 182.5" enable-background="new 0 0 128 182.5" xml:space="preserve">
<g>
	<path fill="#F15537" d="M128,182.5H0V0h128V182.5z M13,169.5h102V13H13V169.5z"/>
	<path fill="#F15537" d="M106.9,94.2H21.1V20.5h85.7V94.2z M34.1,81.2h59.7V33.5H34.1V81.2z"/>
	<rect x="20.6" y="105.5" fill="#F15537" width="21.5" height="13"/>
	<rect x="52.6" y="105.5" fill="#F15537" width="21.5" height="13"/>
	<rect x="84.5" y="105.5" fill="#F15537" width="21.5" height="13"/>
	<rect x="20.6" y="123.5" fill="#F15537" width="21.5" height="13"/>
	<rect x="52.6" y="123.5" fill="#F15537" width="21.5" height="13"/>
	<rect x="84.5" y="123.5" fill="#F15537" width="21.5" height="13"/>
	<rect x="20.6" y="141.5" fill="#F15537" width="21.5" height="13"/>
	<rect x="52.6" y="141.5" fill="#F15537" width="21.5" height="13"/>
	<rect x="84.5" y="141.5" fill="#F15537" width="21.5" height="13"/>
</g>
</svg>
