<?xml version="1.0" encoding="utf-8"?>
<!-- Generator: Adobe Illustrator 17.0.2, SVG Export Plug-In . SVG Version: 6.00 Build 0)  -->
<!DOCTYPE svg PUBLIC "-//W3C//DTD SVG 1.1//EN" "http://www.w3.org/Graphics/SVG/1.1/DTD/svg11.dtd">
<svg version="1.1" id="Layer_1" xmlns="http://www.w3.org/2000/svg" xmlns:xlink="http://www.w3.org/1999/xlink" x="0px" y="0px"
	 width="595.28px" height="841.89px" viewBox="0 0 595.28 841.89" enable-background="new 0 0 595.28 841.89" xml:space="preserve">
<g>
	<path fill="#FFFFFF" d="M592.878,841.89H2.402V0h590.476V841.89z M62.372,781.92h470.536V59.97H62.372V781.92z"/>
	<path fill="#FFFFFF" d="M495.542,434.554H99.738V94.568h395.342v339.985H495.542z M159.708,374.583H435.11V154.539H159.708V374.583
		z"/>
	<rect x="97.432" y="486.682" fill="#FFFFFF" width="99.182" height="59.97"/>
	<rect x="245.051" y="486.682" fill="#FFFFFF" width="99.182" height="59.97"/>
	<rect x="392.208" y="486.682" fill="#FFFFFF" width="99.182" height="59.97"/>
	<rect x="97.432" y="569.717" fill="#FFFFFF" width="99.182" height="59.97"/>
	<rect x="245.051" y="569.717" fill="#FFFFFF" width="99.182" height="59.97"/>
	<rect x="392.208" y="569.717" fill="#FFFFFF" width="99.182" height="59.97"/>
	<rect x="97.432" y="652.753" fill="#FFFFFF" width="99.182" height="59.97"/>
	<rect x="245.051" y="652.753" fill="#FFFFFF" width="99.182" height="59.97"/>
	<rect x="392.208" y="652.753" fill="#FFFFFF" width="99.182" height="59.97"/>
</g>
</svg>
