<?xml version="1.0" encoding="utf-8"?>
<!-- Generator: Adobe Illustrator 19.2.1, SVG Export Plug-In . SVG Version: 6.00 Build 0)  -->
<!DOCTYPE svg PUBLIC "-//W3C//DTD SVG 1.1//EN" "http://www.w3.org/Graphics/SVG/1.1/DTD/svg11.dtd">
<svg version="1.1" id="Layer_1" xmlns="http://www.w3.org/2000/svg" xmlns:xlink="http://www.w3.org/1999/xlink" x="0px" y="0px"
	 viewBox="0 0 196.1 196.1" style="enable-background:new 0 0 196.1 196.1;" xml:space="preserve">
<style type="text/css">
	.st0{fill:#F15537;}
</style>
<path class="st0" d="M113.5,19.4c-25.9-25.9-68.1-25.9-94,0s-25.9,68.1,0,94c21.3,21.3,53.7,25.1,78.9,11.3l64,71.3l33.7-33.7
	l-71.3-64C138.6,73.1,134.8,40.8,113.5,19.4z M117.6,109.4l59.6,53.5l-14.3,14.3l-53.5-59.6L117.6,109.4z M104.3,104.3
	c-20.9,20.9-54.8,20.9-75.7,0c-20.9-20.9-20.9-54.8,0-75.7s54.8-20.9,75.7,0C125.2,49.5,125.2,83.4,104.3,104.3z"/>
</svg>
