<?xml version="1.0" encoding="utf-8"?>
<!-- Generator: Adobe Illustrator 19.2.1, SVG Export Plug-In . SVG Version: 6.00 Build 0)  -->
<!DOCTYPE svg PUBLIC "-//W3C//DTD SVG 1.1//EN" "http://www.w3.org/Graphics/SVG/1.1/DTD/svg11.dtd">
<svg version="1.1" id="Layer_1" xmlns="http://www.w3.org/2000/svg" xmlns:xlink="http://www.w3.org/1999/xlink" x="0px" y="0px"
	 viewBox="0 0 254.2 81.9" style="enable-background:new 0 0 254.2 81.9;" xml:space="preserve">
<style type="text/css">
	.st0{fill:#F15537;}
	.st1{fill:#FFFFFF;}
</style>
<g>
	<g>
		<polygon class="st0" points="237.5,2.5 237.5,0.1 234.5,1.8 234.6,8.7 228.6,5.2 225.6,6.9 237.5,13.8 		"/>
		<polygon class="st0" points="240.7,20.2 240.8,33.1 243.7,31.3 243.7,24.5 249.7,27.9 252.7,26.2 240.7,19.3 		"/>
		<polygon class="st0" points="254.2,9.6 246.7,14 242.3,16.5 254.2,23.4 254.2,20 248.3,16.6 254.2,13.1 		"/>
		<polygon class="st0" points="235.9,16.5 224.1,9.7 224,13.1 230,16.5 224,20 224,23.4 229.7,20.1 		"/>
		<polygon class="st0" points="249.7,5.2 243.7,8.7 243.7,1.7 240.7,0 240.7,12.2 240.7,13.8 252.6,6.9 		"/>
		<polygon class="st0" points="225.7,26.2 228.6,27.9 234.6,24.4 234.5,31.4 237.5,33.1 237.5,29.2 237.5,19.3 		"/>
	</g>
	<g>
		<rect x="40.7" y="31.5" class="st1" width="13" height="49.4"/>
		<polygon class="st1" points="103.7,31.5 89.6,31.5 81.7,45.9 74,31.5 59.2,31.5 73.8,55.3 57.5,80.9 71.9,80.9 81.4,64.9 
			90.6,80.9 105.4,80.9 89.2,55 		"/>
		<polygon class="st1" points="101.8,41.9 118.2,41.9 118.2,75 118.2,80.9 130.9,80.9 130.9,54.3 130.9,41.9 140.8,41.9 147.3,31.5 
			108.2,31.5 		"/>
		<path class="st1" d="M177.7,59.1c0,2.3-0.1,4.2-0.3,5.7c-0.2,1.6-0.5,2.8-1.1,3.7c-0.5,0.9-1.3,1.6-2.2,2
			c-0.9,0.4-2.2,0.6-3.7,0.6c-1.5,0-2.8-0.2-3.7-0.6c-0.9-0.4-1.7-1.1-2.2-2c-0.5-0.9-0.9-2.2-1.1-3.7c-0.2-1.6-0.3-3.5-0.3-5.7
			V31.5h-13v28.8c0,3.4,0.3,6.5,0.9,9.2c0.6,2.7,1.6,5,3.2,6.8c1.5,1.9,3.6,3.3,6.2,4.2c2.6,1,6,1.5,10,1.5c4,0,7.3-0.5,10-1.5
			c2.6-1,4.7-2.4,6.2-4.2c1.5-1.9,2.6-4.1,3.2-6.8c0.6-2.7,0.9-5.7,0.9-9.2V31.5h-13V59.1z"/>
		<path class="st1" d="M227.8,56.3c-1-1.2-2.4-2.3-4.1-3.2c-1.5-0.8-3.5-1.4-5.7-1.8c-0.3-0.1-0.6-0.1-1-0.2l-4.6-0.7
			c-0.1,0-0.2,0-0.3-0.1c-1.7-0.3-2.9-0.8-3.6-1.4c-0.8-0.7-1.1-1.6-1.1-2.9c0-1.8,0.7-3,2.1-3.7c1.4-0.6,3.4-1,6.2-1l8.6,0l6.3-10
			h-14.2c-3.7,0-6.8,0.3-9.5,1c-2.7,0.7-4.9,1.7-6.6,2.9c-1.7,1.3-3,2.8-3.9,4.6c-0.8,1.8-1.2,3.8-1.2,5.9v0.7c0,4.4,1,7.6,3,9.8
			c1.7,1.8,4.2,3.1,7.6,3.8c0.6,0.1,1.2,0.3,1.9,0.3l4,0.6l0.9,0.1c1.9,0.3,3.3,0.8,4.1,1.5c0.8,0.7,1.1,1.7,1.1,3.1
			c0,1.8-0.7,3.1-2.1,3.8c-1.3,0.6-3,0.9-5.2,1h-9.7l-6.6,10.1h16.5c6.3-0.1,11.2-1.3,14.6-3.8c3.5-2.6,5.2-6.1,5.2-10.7v-0.9
			c0-1.8-0.2-3.5-0.6-5C229.5,58.9,228.8,57.6,227.8,56.3z"/>
		<path class="st1" d="M15.3,42.4c1.4-0.6,3.4-1,6.2-1l8.6,0l6.3-10H22.2c-3.7,0-6.8,0.3-9.5,1c-2.7,0.7-4.9,1.7-6.6,2.9
			c-1.7,1.3-3,2.8-3.9,4.6c-0.8,1.8-1.2,3.8-1.2,5.9v0.7c0,4.4,1,7.6,3,9.8c1.7,1.8,4.2,3.1,7.6,3.8c0.6,0.1,1.2,0.3,1.9,0.3l4,0.6
			l0.9,0.1c1.9,0.3,3.3,0.8,4.1,1.5c0.8,0.7,1.1,1.7,1.1,3.1c0,1.8-0.7,3.1-2.1,3.8c-1.3,0.6-3,0.9-5.2,1H6.6L0,80.9h16.5
			c6.3-0.1,11.2-1.3,14.6-3.8c3.5-2.6,5.2-6.1,5.2-10.7v-0.9c0-1.8-0.2-3.5-0.6-5c-0.4-1.6-1.1-3-2-4.2c-1-1.2-2.4-2.3-4.1-3.2
			c-1.5-0.8-3.5-1.4-5.7-1.8c-0.3-0.1-0.6-0.1-1-0.2l-4.6-0.7c-0.1,0-0.2,0-0.3-0.1c-1.7-0.3-2.9-0.8-3.6-1.4
			c-0.8-0.7-1.1-1.6-1.1-2.9C13.2,44.3,13.9,43,15.3,42.4z"/>
	</g>
</g>
</svg>
