<?xml version="1.0" encoding="utf-8"?>
<!-- Generator: Adobe Illustrator 19.2.1, SVG Export Plug-In . SVG Version: 6.00 Build 0)  -->
<!DOCTYPE svg PUBLIC "-//W3C//DTD SVG 1.1//EN" "http://www.w3.org/Graphics/SVG/1.1/DTD/svg11.dtd">
<svg version="1.1" id="Layer_1" xmlns="http://www.w3.org/2000/svg" xmlns:xlink="http://www.w3.org/1999/xlink" x="0px" y="0px"
	 viewBox="0 0 28.1 28.1" style="enable-background:new 0 0 28.1 28.1;" xml:space="preserve">
<style type="text/css">
	.st0{fill:#FFFFFF;}
</style>
<g>
	<g>
		<polygon class="st0" points="14.4,18.6 18.8,10.9 16.4,10.9 14,15 11.7,10.9 9.3,10.9 14,19.2 		"/>
	</g>
	<path class="st0" d="M14,28.1c-7.7,0-14-6.3-14-14C0,6.3,6.3,0,14,0c7.7,0,14,6.3,14,14C28.1,21.8,21.8,28.1,14,28.1z M14,2
		C7.4,2,2,7.4,2,14s5.4,12,12,12s12-5.4,12-12S20.7,2,14,2z"/>
</g>
</svg>
